<?xml version="1.0" encoding="utf-8"?>
<svg viewBox="0 0 500 500" xmlns="http://www.w3.org/2000/svg" xmlns:bx="https://boxy-svg.com">
  <path d="M 196.06 -22.512 C 196.06 -22.512 224.392 -16.769 264.188 -2.253 C 264.188 -2.253 256.348 18.444 243.408 38.099 C 241.099 41.603 241.283 47.594 249.035 48.226 C 254.525 48.674 270.085 -0.071 270.768 0.187 C 288.036 6.705 307.183 14.815 326.936 24.723 C 328.59 25.553 308.21 68.544 302.231 71.756 C 291.465 77.542 311.912 123.537 336.819 64.422 C 337.626 62.505 344.829 34.121 346.665 35.142 C 362.107 43.726 377.663 53.436 392.758 64.374 C 394.357 65.53 370.583 78.144 368.922 80.675 C 352.301 105.997 374.78 104.208 381.367 101.955 C 388.108 99.647 409.258 76.979 411.556 78.867 C 418.561 84.619 425.405 90.665 432.019 97.015 C 433.027 97.982 390.024 157.477 366.733 170.288 C 363.629 171.993 342.827 201.77 381.696 192.638 C 409.394 186.13 443.826 108.942 443.826 108.942 C 460 126.158 474.431 145.413 486.045 166.897 C 487.313 169.239 448.452 234.665 404.264 259.279 C 382.841 271.212 410.438 295.592 429.235 279.951 C 460.29 254.111 496.073 187.653 497.06 190.037 C 509.862 220.984 516.918 256.069 515.633 295.756 C 515.559 298.105 467.487 322.014 426.014 319.204 C 414.172 318.401 399.815 343.398 426.966 345.093 C 469.21 347.732 514.278 316.127 514.032 318.408 C 513.764 320.896 513.462 323.402 513.129 325.925 C 498.874 433.733 334.666 388.44 318.457 375.164 C 316.006 373.158 371.5 492.053 368.384 492.545 C 363.623 493.297 353.732 490.47 349.058 491.419 C 342.333 492.784 306.194 375.992 304.777 382.555 C 277.507 508.687 135.939 493.354 100.277 429.554 C 100.277 429.554 162.148 436.655 174.899 423.043 C 187.895 409.169 175.304 401.47 165.649 405.281 C 138.836 415.866 90.258 411.251 90.258 411.251 C 68.81 370.977 55.801 337.275 55.889 290.007 C 55.889 290.007 106.945 343.867 181.27 351.378 C 191.43 352.405 215.933 327.478 172.959 318.362 C 119.177 306.956 56.592 270.687 56.865 267.312 C 58.276 249.88 61.248 230.569 65.95 208.619 C 67.035 203.566 94.697 253.123 102.844 256.35 C 139.14 270.729 125.734 239.266 125.746 245.033 C 125.746 245.033 71.666 197.938 72.08 195.984 C 76.02 177.381 80.611 159.353 84.98 141.867 C 85.446 139.995 128.63 183.119 142.347 189.531 C 158.841 197.245 181.695 176.206 155.894 166.213 C 131.985 156.95 90.754 122.537 91.858 120.37 C 103.794 96.92 116.003 75.205 128.774 56.65 C 128.774 56.65 158.624 92.12 164.559 94.742 C 172.298 98.161 187.05 84.149 173.848 76.109 C 162.089 68.948 138.559 42.508 138.559 42.508 C 168.9 1.315 196.06 -22.512 196.06 -22.512 Z" style="fill-opacity: 0.73; fill: rgb(6, 71, 7);" transform="matrix(0.534015, 0.845475, -0.845475, 0.534015, 331.950166, -132.122693)"/>
  <ellipse style="fill: rgb(255, 255, 255);" cx="188.609" cy="111.282" rx="13.038" ry="12.672" transform="matrix(0.534015, 0.845475, -0.845475, 0.534015, 385.67804, -164.079724)"/>
  <ellipse style="fill: rgb(255, 255, 255);" cx="239.894" cy="136.658" rx="20.191" ry="19.628" transform="matrix(0.534015, 0.845475, -0.845475, 0.534015, 389.327851, -129.06448)"/>
  <ellipse style="fill: rgb(255, 255, 255);" cx="267.953" cy="236.458" rx="15.459" ry="15.026" transform="matrix(0.534015, 0.845475, -0.845475, 0.534015, 346.632232, -81.678462)"/>
  <ellipse style="fill: rgb(255, 255, 255);" cx="187.717" cy="222.958" rx="15.459" ry="15.026" transform="matrix(0.534015, 0.845475, -0.845475, 0.534015, 327.292571, -127.851696)"/>
  <ellipse style="fill: rgb(255, 255, 255);" cx="297.053" cy="279.981" rx="15.459" ry="15.026" transform="matrix(0.534015, 0.845475, -0.845475, 0.534015, 333.553161, -52.241187)"/>
  <ellipse style="fill: rgb(255, 255, 255);" cx="225.671" cy="296.488" rx="22.587" ry="21.957" transform="matrix(0.534015, 0.845475, -0.845475, 0.534015, 301.513304, -83.949657)"/>
  <path style="stroke: rgb(255, 255, 255); fill: none;" d="M 400.253 80.773 C 401.86 80.913 390.863 75.789 377.493 74.622" transform="matrix(0.534015, 0.845475, -0.845475, 0.534015, 246.937922, -292.642006)"/>
  <path style="stroke: rgb(255, 255, 255); fill: none;" d="M 375.282 134.027 C 371.817 132.029 389.825 105.105 397.205 109.36" transform="matrix(0.534015, 0.845475, -0.845475, 0.534015, 282.578025, -269.772794)"/>
  <path style="stroke: rgb(255, 255, 255); fill: none;" d="M 304.543 112.98 C 311.352 102.399 362.676 119.122 358.151 126.219" transform="matrix(0.534015, 0.845475, -0.845475, 0.534015, 254.142303, -225.329421)"/>
  <path style="stroke: rgb(255, 255, 255); fill: none;" d="M 316.543 258.983 C 317.369 259.673 327.525 232.35 401.256 216.763 C 424.81 211.786 435.35 176.579 433.992 175.469" transform="matrix(0.534015, 0.845475, -0.845475, 0.534015, 358.560634, -216.101298)"/>
  <path style="stroke: rgb(255, 255, 255); fill: none;" d="M 172.404 136.572 C 173.576 134.096 210.732 165.427 251.607 141.892 C 282.908 123.871 318.143 142.608 316.65 145.776" transform="matrix(0.534015, 0.845475, -0.845475, 0.534015, 234.383246, -140.387506)"/>
  <path style="stroke: rgb(255, 255, 255); fill: none;" d="M 166.482 217.337 C 173.129 220.406 193.802 203.755 204.921 203.073 C 229.134 201.589 265.995 204.962 266.819 215.908" transform="matrix(0.534015, 0.845475, -0.845475, 0.534015, 278.698472, -85.209447)"/>
  <path style="stroke: rgb(255, 255, 255); fill: none;" d="M 237.214 337.813 C 237.217 337.81 248.188 312.17 292.084 305.302 C 323.605 300.367 346.979 272.768 346.944 272.773" transform="matrix(0.534015, 0.845475, -0.845475, 0.534015, 394.222044, -104.683549)"/>
  <path style="stroke: rgb(255, 255, 255); fill: none;" d="M 105.918 292.837 C 86.01 290.41 151.551 230.994 205.153 237.53" transform="matrix(0.534015, 0.845475, -0.845475, 0.534015, 294.062721, -7.248841)" bx:origin="0.499 0.468"/>
  <path style="stroke: rgb(255, 255, 255); fill: none;" d="M 153.33 313.117 C 153.81 308.278 189.019 298.085 188.393 303.22" transform="matrix(0.534015, 0.845475, -0.845475, 0.534015, 339.573954, -1.189004)"/>
  <path style="stroke: rgb(255, 255, 255); fill: none;" d="M 171.333 361.836 C 179.784 346.764 239.935 354.917 255.399 377.441" transform="matrix(0.534015, 0.845475, -0.845475, 0.534015, 408.702903, -9.936765)"/>
  <ellipse style="fill: rgb(255, 255, 255);" cx="200.325" cy="176.547" rx="13.038" ry="12.672" transform="matrix(0.534015, 0.845475, -0.845475, 0.534015, 355.577423, -136.541928)"/>
  <path d="M 238.002 59.398 L 257.912 119.59 C 260.965 119.503 335.744 367.648 335.7 367.649 L 323.024 370.949 C 318.969 371.678 229.852 64.896 238.002 59.398 Z" style="fill: rgb(255, 255, 255);" transform="matrix(0.534015, 0.845475, -0.845475, 0.534015, 315.469978, -142.03488)"/>
</svg>