<?xml version="1.0" encoding="utf-8"?>
<svg viewBox="0 0 500 500" xmlns="http://www.w3.org/2000/svg">
  <path id="ae90ee98-50a6-4343-bcab-c7717b4ab754-1442" data-name="Path 133" d="M 429.666 420.072 C 429.336 432.367 427.277 444.555 423.547 456.275 C 423.464 456.547 423.373 456.815 423.283 457.087 L 400.452 457.087 C 400.476 456.843 400.5 456.571 400.524 456.275 C 402.047 438.774 393.35 333.527 382.856 315.312 C 383.775 316.79 431.436 364.463 429.666 420.072 Z" fill="#f0f0f0" style=""/>
  <path id="ace95f5d-9239-4670-9a5e-89bd21d3a3cd-1443" data-name="Path 134" d="M 427.953 456.275 C 427.762 456.547 427.563 456.819 427.36 457.087 L 410.231 457.087 C 410.361 456.856 410.511 456.584 410.686 456.275 C 413.515 451.169 421.89 435.9 429.664 420.072 C 438.015 403.062 445.683 385.407 445.038 379.017 C 445.238 380.458 451.019 424.391 427.953 456.275 Z" fill="#f0f0f0" style=""/>
  <path id="b1e24b1a-80e9-492b-ae8f-155b8492cb31-1444" data-name="Path 133" d="M 485.414 436.795 C 485.234 443.535 484.105 450.216 482.06 456.642 C 482.015 456.791 481.964 456.938 481.915 457.087 L 469.399 457.087 C 469.412 456.953 469.425 456.804 469.439 456.642 C 470.273 447.048 465.505 389.35 459.752 379.364 C 460.256 380.174 486.385 406.309 485.414 436.795 Z" fill="#f0f0f0" style=""/>
  <path id="b092796d-fbce-4787-85db-a435af6317d1-1445" data-name="Path 134" d="M 484.475 456.642 C 484.37 456.791 484.262 456.94 484.15 457.087 L 474.76 457.087 C 474.831 456.96 474.913 456.811 475.009 456.642 C 476.56 453.842 481.152 445.472 485.413 436.795 C 489.992 427.47 494.195 417.791 493.841 414.288 C 493.951 415.077 497.121 439.163 484.475 456.642 Z" fill="#f0f0f0" style=""/>
  <path id="f749498b-12ad-4a63-9639-cd9a5a319912-1446" data-name="Path 133" d="M 367.175 436.795 C 366.995 443.535 365.866 450.216 363.821 456.642 C 363.776 456.791 363.725 456.938 363.677 457.087 L 351.16 457.087 C 351.173 456.953 351.187 456.804 351.2 456.642 C 352.034 447.048 347.266 389.35 341.513 379.364 C 342.017 380.174 368.146 406.309 367.175 436.795 Z" fill="#f0f0f0" style=""/>
  <path id="a1477d31-24e2-4198-a2a2-41d3c8f4997f-1447" data-name="Path 134" d="M 366.236 456.642 C 366.132 456.791 366.023 456.94 365.911 457.087 L 356.521 457.087 C 356.592 456.96 356.675 456.811 356.77 456.642 C 358.321 453.842 362.913 445.472 367.175 436.795 C 371.753 427.47 375.957 417.791 375.603 414.288 C 375.712 415.077 378.882 439.163 366.236 456.642 Z" fill="#f0f0f0" style=""/>
  <polygon points="263.935 449.188 275.97 449.188 281.696 402.765 263.933 402.766 263.935 449.188" fill="#ffb7b7" style=""/>
  <path d="M 260.865 445.259 L 284.567 445.258 L 284.568 445.258 C 292.91 445.258 299.673 452.02 299.673 460.363 L 299.673 460.853 L 260.865 460.855 L 260.865 445.259 Z" fill="#2f2e41" style=""/>
  <polygon points="198.77 449.188 210.806 449.188 216.531 402.765 198.768 402.766 198.77 449.188" fill="#ffb7b7" style=""/>
  <path d="M 195.7 445.259 L 219.402 445.258 L 219.403 445.258 C 227.745 445.258 234.508 452.02 234.508 460.363 L 234.508 460.853 L 195.7 460.855 L 195.7 445.259 Z" fill="#2f2e41" style=""/>
  <polygon points="193.866 238.787 193.866 361.36 196.969 440.489 222.57 440.489 231.103 291.54 248.17 352.827 259.031 438.937 290.062 437.386 269.117 238.787 193.866 238.787" fill="#2f2e41" style=""/>
  <circle cx="223.626" cy="110.009" r="18.619" fill="#ffb8b8" style=""/>
  <polygon points="215.89 133.478 210.933 138.713 206.279 243.442 261.358 241.89 248.17 150.35 236.534 139.198 230.629 133.478 215.89 133.478" fill="#426da9" style=""/>
  <path d="M 207.054 144.919 L 211.235 138.133 L 212.485 152.676 C 212.485 152.676 222.57 185.259 221.794 213.962 C 221.018 242.666 225.673 310.158 219.467 310.934 C 213.26 311.71 186.884 313.261 186.884 307.831 C 186.884 302.401 185.332 158.107 185.332 158.107 L 207.054 144.919 Z" fill="#3f3d56" style=""/>
  <path d="M 235.284 138.133 L 245.843 146.47 L 269.116 155.004 C 269.116 155.004 269.116 254.303 273.771 277.576 C 278.425 300.849 286.959 303.176 276.098 303.952 C 265.237 304.728 266.013 300.849 266.013 300.849 C 266.013 300.849 273.771 262.06 263.686 254.303 C 253.601 246.545 234.206 201.55 235.758 176.725 C 237.309 151.9 233.733 138.133 235.284 138.133 Z" fill="#3f3d56" style=""/>
  <path d="M 206.012 115.834 C 206.012 115.834 207.594 113.056 207.226 103.775 C 206.858 94.495 220.991 99.744 232.799 98.858 C 244.608 97.973 242.109 114.352 242.109 114.352 C 242.109 114.352 242.96 113.379 244.784 105.474 C 246.608 97.568 242.467 89.69 242.467 89.69 C 241.247 81.384 234.674 84.046 234.674 84.046 C 237.84 85.278 237.232 87.913 237.232 87.913 C 234.552 83.215 227.979 85.878 227.979 85.878 C 219.211 80.376 210.326 87.621 210.326 87.621 C 199.735 90.025 205.946 98.447 205.946 98.447 C 195.295 103.83 206.012 115.834 206.012 115.834 Z" fill="#2f2e41" style=""/>
  <path d="M 186.91 296.614 C 190.271 293.062 189.604 287.336 185.517 284.651 L 188.871 267.02 L 178.654 262.369 L 174.267 287.334 C 171.273 292.624 175.128 299.172 181.207 299.12 C 183.371 299.101 185.433 298.195 186.91 296.614 Z" fill="#ffb7b7" style=""/>
  <path d="M 189.211 158.107 L 187.151 157.002 C 187.151 157.002 176.023 161.21 176.799 164.313 C 177.575 167.416 170.593 276.024 172.92 279.903 C 175.247 283.782 193.866 280.679 193.866 280.679 L 189.211 158.107 Z" fill="#3f3d56" style=""/>
  <path d="M 277.773 289.302 C 273.953 286.249 273.821 280.486 277.497 277.262 L 271.736 260.264 L 281.211 254.244 L 289.01 278.362 C 292.707 283.187 289.795 290.205 283.768 290.994 C 281.622 291.275 279.455 290.663 277.773 289.301 L 277.773 289.302 Z" fill="#ffb7b7" style=""/>
  <path d="M 268.679 274.483 C 268.679 274.483 287.548 274.98 289.316 270.816 C 291.084 266.653 269.142 160.055 269.481 156.874 C 269.82 153.694 258.217 151.066 258.217 151.066 L 256.329 152.445 L 268.679 274.483 Z" fill="#3f3d56" style=""/>
  <path d="M 352.074 279.279 L 340.392 222.037 L 335.261 179.758 L 323.892 187.113 L 325.463 233.704 L 343.608 281.977 C 341.345 286.288 344.597 291.433 349.462 291.238 C 354.327 291.042 357.156 285.653 354.555 281.538 C 353.946 280.575 353.089 279.795 352.074 279.279 Z" fill="#ffb7b7" style=""/>
  <path d="M 242.815 283.705 L 246.048 225.373 L 244.977 182.797 L 260.007 188.42 L 262.516 234.745 L 251.583 285.144 C 254.449 289.08 251.98 294.642 247.138 295.157 C 242.296 295.671 238.713 290.751 240.689 286.3 C 241.151 285.26 241.885 284.363 242.815 283.705 Z" fill="#ffb7b7" style=""/>
  <polygon points="274.293 453.297 281.972 453.297 285.626 423.675 274.292 423.676 274.293 453.297" fill="#ffb7b7" style=""/>
  <path d="M 272.334 450.79 L 287.458 450.79 L 287.459 450.79 C 292.782 450.79 297.097 455.105 297.097 460.428 L 297.097 460.741 L 272.334 460.742 L 272.334 450.79 Z" fill="#2f2e41" style=""/>
  <polygon points="303.381 449.899 310.971 451.073 319.111 422.358 307.909 420.626 303.381 449.899" fill="#ffb7b7" style=""/>
  <path d="M 301.829 447.122 L 316.775 449.434 L 316.776 449.434 C 322.036 450.248 325.641 455.172 324.827 460.432 L 324.779 460.742 L 300.307 456.956 L 301.829 447.122 Z" fill="#2f2e41" style=""/>
  <path d="M 272.037 444.453 L 271.997 444.238 L 244.195 293.921 C 241.988 281.854 243.748 269.396 249.213 258.413 L 266.04 224.758 L 316.252 231.561 L 322.178 274.408 L 343.295 356.147 L 343.274 356.214 L 316.218 442.157 L 298.486 443.323 L 314.193 366.607 L 285.432 301.282 L 287.461 443.284 L 272.037 444.453 Z" fill="#2f2e41" style=""/>
  <path d="M 317.421 237.044 L 317.089 236.525 C 317.03 236.431 310.93 227.242 294.333 233.378 C 277.39 239.642 264.262 227.543 264.131 227.42 L 264.066 227.359 L 260.229 193.159 L 255.699 165.395 L 270.118 162.865 L 277.207 158.612 L 305.396 158.11 L 312.814 163.945 L 324.993 165.272 L 326.108 190.569 L 326.103 190.597 L 317.421 237.044 Z" fill="#426da9" style=""/>
  <path d="M 321.461 193.016 L 321.461 171.355 L 324.885 165.104 L 325.025 165.1 C 327.721 165.201 330.269 166.359 332.118 168.323 C 335.563 171.823 337.123 177.654 336.756 185.655 L 336.749 185.801 L 321.461 193.016 Z" fill="#426da9" style=""/>
  <path d="M 261.767 190.662 L 244.311 188.567 L 244.298 188.366 C 243.702 179.661 245.222 173.2 248.813 169.162 C 250.616 167.002 253.174 165.609 255.966 165.267 L 256.067 165.262 L 260.792 169.558 L 261.767 190.662 Z" fill="#426da9" style=""/>
  <path d="M 312.297 149.382 L 266.364 149.382 C 264.397 149.38 262.803 147.785 262.801 145.818 L 262.801 129.187 C 262.766 108.764 284.853 95.963 302.557 106.145 C 310.801 110.886 315.877 119.677 315.861 129.187 L 315.861 145.818 C 315.859 147.785 314.264 149.38 312.297 149.382 Z" fill="#2f2e41" style=""/>
  <circle cx="290.397" cy="129.767" r="19.451" fill="#ffb7b7" style=""/>
  <path d="M 308.885 130.375 L 283.206 130.375 C 282.207 130.374 281.366 129.631 281.241 128.64 L 280.908 125.981 C 280.795 125.073 279.742 124.629 279.013 125.181 C 278.859 125.298 278.735 125.45 278.653 125.626 L 276.97 129.233 C 276.643 129.928 275.944 130.373 275.176 130.375 L 271.275 130.375 C 270.107 130.375 269.192 129.369 269.304 128.207 L 270.842 112.141 C 270.909 111.442 271.339 110.829 271.973 110.529 C 283.734 105.038 295.66 105.045 307.421 110.549 C 308.027 110.834 308.448 111.406 308.541 112.069 L 310.845 128.114 C 311.017 129.307 310.091 130.376 308.885 130.375 Z" fill="#2f2e41" style=""/>
  <path d="M 319.452 281.098 C 323.621 279.623 325.443 274.737 323.258 270.891 L 339.907 251.912 L 326.91 250.119 L 313.093 268.417 C 308.503 271.444 308.91 278.305 313.826 280.767 C 315.577 281.644 317.61 281.763 319.452 281.098 Z" style="fill: rgb(255, 184, 184);"/>
  <polygon points="339.53 449.299 327.918 449.298 322.394 404.511 339.532 404.512 339.53 449.299" style="fill: rgb(255, 184, 184);"/>
  <path d="M 342.491 460.554 L 305.051 460.553 L 305.051 460.079 C 305.051 452.031 311.576 445.507 319.624 445.507 L 319.625 445.507 L 342.492 445.508 L 342.491 460.554 Z" fill="#2f2e41" style=""/>
  <polygon points="400.312 439.582 389.222 443.025 370.666 401.89 387.033 396.809 400.312 439.582" style="fill: rgb(255, 184, 184);"/>
  <path d="M 406.478 449.453 L 370.721 460.554 L 370.581 460.102 C 368.195 452.416 372.491 444.251 380.177 441.864 L 380.178 441.863 L 402.016 435.083 L 406.478 449.453 Z" fill="#2f2e41" style=""/>
  <path id="f1066638-9b86-4717-bcc8-db5f2da468bd-1448" data-name="Path 973" d="M 330.638 242.812 L 313.441 262.507 L 326.904 263.719 L 330.638 242.812 Z" fill="#e6e6e6" style=""/>
  <path id="af262a15-c86f-47ab-a56c-b4ab6ae66702-1449" data-name="Path 975" d="M 323.918 268.198 C 323.918 268.198 317.945 271.185 317.198 284.625 C 316.452 298.065 319.439 333.161 319.439 333.161 C 319.439 333.161 316.452 348.841 319.439 363.027 C 322.425 377.213 316.452 428.73 320.185 428.73 C 323.918 428.73 343.331 430.97 344.078 428.73 C 344.825 426.49 345.572 392.891 345.572 392.891 C 345.572 392.891 351.545 375.717 345.572 365.267 C 345.572 365.267 366.428 401.685 379.918 429.479 C 382.87 435.562 405.304 428.732 401.571 422.012 C 397.838 415.292 388.878 384.679 388.878 384.679 C 388.878 384.679 382.158 362.279 370.212 352.573 L 376.185 304.787 C 376.185 304.787 388.879 272.681 381.413 268.201 C 373.948 263.721 323.918 268.198 323.918 268.198 Z" fill="#2f2e41" style=""/>
  <circle id="fbcb1e7b-18f5-4394-a5dd-21324d3d96d7" data-name="Ellipse 182" cx="346.318" cy="127.08" r="19.413" style="fill: rgb(255, 184, 184);"/>
  <path id="f91d5893-36b1-4b4e-ad68-e940b5b31ca4-1450" data-name="Path 976" d="M 367.971 147.986 L 343.837 162.172 C 343.837 162.172 334.596 167.376 331.144 176.359 C 327.465 185.931 329.604 199.41 331.144 202.492 C 334.131 208.465 329.892 223.398 329.892 223.398 L 326.159 257.744 C 326.159 257.744 312.719 270.437 323.172 271.93 C 333.626 273.424 352.292 271.183 363.492 271.93 C 374.692 272.677 387.384 274.17 383.651 266.702 C 379.918 259.234 375.438 254.009 379.918 239.078 C 383.424 227.393 383.272 183.702 383.04 165.25 C 382.975 160.098 380.245 155.348 375.826 152.698 L 367.971 147.986 Z" fill="#e5e5e5" style=""/>
  <path id="ab5b7163-34aa-4542-8f5b-346ef47d8115-1451" data-name="Path 980" d="M 357.147 171.506 L 359.387 217.052 L 337.679 261.012 L 333.998 259.611 L 356.398 218.545 L 357.147 171.506 Z" opacity="0.1" style="isolation: isolate;"/>
  <path id="a0747de6-ab5b-4f6b-918c-fa029658d911-1452" data-name="Path 982" d="M 381.784 226.758 L 381.784 221.53 L 356.401 263.344 L 381.784 226.758 Z" opacity="0.1" style="isolation: isolate;"/>
  <path id="fa11fa6f-8d0b-4738-bd9e-1b384a1b66c7-1453" data-name="Path 983" d="M 332.54 109.096 L 329.333 107.813 C 329.333 107.813 336.045 100.425 345.379 101.068 L 342.753 98.177 C 342.753 98.177 349.172 95.607 355.007 102.352 C 358.075 105.898 361.624 110.066 363.839 114.761 L 367.276 114.761 L 365.841 117.919 L 370.862 121.078 L 365.709 120.513 C 366.197 123.24 366.03 126.044 365.221 128.693 L 365.362 131.19 C 365.362 131.19 359.386 121.943 359.386 120.66 L 359.386 123.872 C 359.386 123.872 356.177 120.981 356.177 119.054 L 354.426 121.303 L 353.551 117.77 L 342.756 121.303 L 344.505 118.41 L 337.793 119.374 L 340.419 115.842 C 340.419 115.842 332.834 120.017 332.542 123.551 C 332.25 127.085 328.458 131.581 328.458 131.581 L 326.707 128.368 C 326.707 128.368 324.082 113.914 332.54 109.096 Z" fill="#2f2e41" style=""/>
  <path d="M 345.099 283.211 C 348.941 281.019 349.867 275.887 347.034 272.49 L 360.049 250.858 L 346.941 251.4 L 336.591 271.86 C 332.611 275.653 334.229 282.333 339.505 283.883 C 341.383 284.435 343.406 284.192 345.099 283.211 Z" style="fill: rgb(255, 184, 184);"/>
  <path id="b6ea18e9-d072-4df0-8b87-7f4e4805b6d9-1454" data-name="Path 981" d="M 374.692 157.694 L 380.291 156.574 C 380.291 156.574 397.091 168.894 391.864 193.533 C 386.638 218.173 363.492 255.506 363.492 255.506 C 363.492 255.506 358.264 262.226 356.772 263.719 C 355.279 265.211 352.292 263.719 353.785 265.959 C 355.279 268.199 351.545 269.692 351.545 269.692 C 351.545 269.692 335.118 269.692 336.612 263.719 C 338.106 257.745 363.492 215.183 363.492 215.183 L 359.759 175.61 C 359.759 175.61 356.771 156.2 374.692 157.694 Z" fill="#e5e5e5" style=""/>
  <path d="M 498.508 456.251 L 2.969 456.251 C 2.344 456.251 1.955 456.088 2.267 455.958 C 2.411 455.898 2.679 455.861 2.969 455.861 L 498.508 455.861 C 499.133 455.861 499.523 456.023 499.21 456.153 C 499.066 456.213 498.798 456.251 498.508 456.251 Z" fill="#cacaca" style=""/>
  <path d="M 17.149 118.177 L 17.149 118.462 L 9.353 118.462 C 6.861 118.462 4.84 120.482 4.84 122.974 L 4.84 139.49 C 4.84 141.982 6.861 144.002 9.353 144.002 L 52.122 144.002 C 54.614 144.002 56.634 141.982 56.634 139.49 L 56.634 122.974 C 56.634 120.482 54.614 118.462 52.122 118.462 L 22.698 118.462 L 22.698 118.177 L 17.149 118.177 Z" fill="#3f3d56" style=""/>
  <path d="M 130.51 186.779 C 130.691 211.154 115.116 207.468 96.128 207.468 C 77.139 207.468 63.401 211.098 61.745 186.779 C 59.114 148.134 69.264 119.194 96.128 119.194 C 123.916 119.194 130.223 148.134 130.51 186.779 Z" fill="#2f2e41" style=""/>
  <path d="M 26.512 135.076 C 29.125 140.363 26.324 146.727 20.661 148.37 L 18.928 181.988 L 4.84 171.619 L 8.645 141.285 C 7.072 134.124 13.84 127.946 20.828 130.163 C 23.316 130.953 25.37 132.729 26.512 135.076 Z" style="fill: rgb(255, 184, 184);"/>
  <path d="M 153.551 325.059 C 156.806 320.142 154.826 313.477 149.413 311.136 L 151.911 277.567 L 136.633 286.087 L 136.604 316.659 C 134.145 323.565 140.084 330.544 147.295 329.221 C 149.863 328.749 152.124 327.245 153.551 325.059 Z" fill="#a0616a" style=""/>
  <polygon points="83.195 486.652 94.744 486.651 100.237 442.106 83.193 442.107 83.195 486.652" style="fill: rgb(255, 184, 184);"/>
  <path d="M 80.249 482.881 L 102.992 482.88 L 102.993 482.88 C 110.998 482.88 117.487 489.369 117.487 497.374 L 117.487 497.845 L 80.25 497.846 L 80.249 482.881 Z" fill="#2f2e41" style=""/>
  <polygon points="156.67 486.652 168.218 486.651 173.713 442.106 156.668 442.107 156.67 486.652" style="fill: rgb(255, 184, 184);"/>
  <path d="M 153.724 482.881 L 176.467 482.88 L 176.468 482.88 C 184.473 482.88 190.962 489.369 190.962 497.374 L 190.962 497.845 L 153.725 497.846 L 153.724 482.881 Z" fill="#2f2e41" style=""/>
  <path d="M 150.078 306.564 L 149.577 306.473 C 145.37 305.711 141.112 304.941 137.369 304.136 L 136.999 304.056 L 136.997 303.677 C 136.933 286.603 136.869 269.531 136.774 252.305 C 127.833 234.284 124.075 214.133 125.917 194.1 L 125.938 193.889 L 126.112 193.765 C 129.43 191.46 133.733 191.128 137.365 192.894 C 140.906 194.83 143.292 198.359 143.77 202.366 C 147.174 220.918 150.698 240.131 154.629 259.062 L 154.643 259.131 L 154.637 259.202 C 153.18 274.642 151.675 290.608 150.129 306.056 L 150.078 306.564 Z" fill="#426da9" style=""/>
  <path d="M 142.55 470.776 L 142.458 470.341 C 137.055 444.786 131.84 423.976 126.797 403.851 C 120.753 379.733 115.025 356.879 109.243 327.304 C 110.037 364.6 111.881 391.395 114.001 422.194 C 114.959 436.102 115.949 450.482 116.953 467.271 L 116.984 467.783 L 116.471 467.77 C 98.397 467.308 79.879 466.191 61.97 465.112 L 61.496 465.083 L 61.528 464.609 C 64.919 414.634 65.981 382.159 66.757 358.447 C 68.394 308.419 68.645 300.73 87.281 258.391 C 87.987 256.785 92.201 252.039 96.834 252.762 L 133.499 258.468 L 133.563 258.791 C 134.598 264.002 139.732 279.815 146.837 301.702 C 162.028 348.489 184.984 419.195 192.155 461.342 L 192.236 461.819 L 191.757 461.887 C 181.341 463.368 173.844 464.909 166.595 466.4 C 159.735 467.811 152.643 469.269 142.988 470.709 L 142.55 470.776 Z" style="fill: rgb(229, 229, 229);"/>
  <path d="M 110.684 271.694 C 100.898 271.695 91.226 268.299 84.292 261.688 C 82.093 260.408 80.653 258.14 80.431 255.605 C 80.071 253.289 80.753 250.932 82.295 249.167 C 75.497 240.938 68.478 232.434 61.759 223.774 L 61.574 223.535 L 61.789 223.124 C 66.185 214.726 70.73 206.042 75.095 197.461 C 75.714 195.937 77.117 194.874 78.752 194.692 C 80.16 194.425 81.616 194.751 82.778 195.591 L 82.786 195.383 C 82.969 191.039 83.151 186.695 83.339 182.578 L 83.359 182.138 L 83.799 182.128 C 92.192 181.943 100.871 181.751 109.396 181.245 L 109.721 181.226 L 113.949 190.658 C 120.816 189.991 127.726 191.394 133.79 194.685 L 134.069 194.834 L 134.037 195.149 C 132.336 211.359 132.706 227.719 135.138 243.835 C 135.006 251.194 134.864 258.715 133.371 264.71 L 133.327 264.885 L 133.178 264.986 C 126.514 269.408 118.682 271.744 110.684 271.694 Z" fill="#426da9" style=""/>
  <path d="M 74.664 230.774 L 74.101 230.516 C 67.526 227.217 60.93 223.558 54.551 220.019 L 53.67 219.847 C 36.875 216.475 27.623 214.619 12.471 205.734 L 12.355 205.665 L 12.292 205.545 C 4.705 191.052 2.589 178.383 4.484 158.802 L 4.522 158.409 L 4.914 158.378 C 6.557 158.244 9.234 158.155 11.823 158.068 C 14.342 157.985 16.946 157.897 18.543 157.772 L 18.913 157.743 L 19.028 158.096 C 21.013 164.227 22.7 169.947 24.486 176.003 C 26.321 182.228 28.218 188.662 30.529 195.81 C 38.99 198.242 61.671 197.515 68.723 196.555 C 73.009 196.239 77.161 198.127 79.741 201.564 L 79.872 201.728 L 79.838 201.935 C 78.286 211.41 76.503 220.941 74.779 230.159 L 74.664 230.774 Z" fill="#426da9" style=""/>
  <circle cx="328.124" cy="288.186" r="23.136" transform="matrix(0.47966, -0.877455, 0.877455, 0.47966, -314.553162, 305.109283)" style="fill: rgb(255, 184, 184);"/>
  <path d="M 69.281 154.047 L 78.432 154.047 L 82.469 142.744 L 83.276 154.047 L 87.65 154.047 L 90.005 147.454 L 90.476 154.047 L 122.974 154.047 C 122.974 140.521 112.009 129.556 98.482 129.556 L 93.773 129.556 C 80.246 129.556 69.281 140.521 69.281 154.047 Z" fill="#2f2e41" style=""/>
</svg>